<svg width="25" height="19" viewBox="0 0 25 19" fill="none" xmlns="http://www.w3.org/2000/svg">
<path d="M20.7409 2.27653C19.2073 1.58495 17.5635 1.07377 15.8445 0.783108C15.8292 0.780169 15.8133 0.782063 15.7991 0.788528C15.785 0.794993 15.7731 0.805708 15.7653 0.819191C15.5548 1.18904 15.3203 1.67114 15.1559 2.05202C13.3327 1.77963 11.4792 1.77963 9.65608 2.05202C9.47298 1.62991 9.26652 1.21833 9.03764 0.819191C9.02988 0.805542 9.01814 0.794584 9.00399 0.787779C8.98984 0.780974 8.97396 0.778645 8.95845 0.781104C7.24045 1.07177 5.59662 1.58294 4.06204 2.27553C4.04884 2.28107 4.03765 2.29051 4.02997 2.30259C0.910703 6.88811 0.0557111 11.3604 0.475689 15.7765C0.476858 15.7873 0.480216 15.7978 0.485557 15.8072C0.490899 15.8167 0.498114 15.825 0.506762 15.8316C2.3274 17.1571 4.35807 18.1668 6.51376 18.8185C6.52878 18.8231 6.54486 18.8231 6.55988 18.8184C6.5749 18.8138 6.58817 18.8047 6.59795 18.7924C7.06183 18.1721 7.47289 17.5139 7.82682 16.8249C7.83173 16.8155 7.83456 16.8051 7.83512 16.7945C7.83567 16.7839 7.83395 16.7733 7.83005 16.7634C7.82615 16.7535 7.82018 16.7446 7.81253 16.7372C7.80488 16.7298 7.79574 16.7242 7.78572 16.7207C7.13822 16.4768 6.51083 16.1826 5.90935 15.8406C5.89854 15.8345 5.88943 15.8257 5.88284 15.8152C5.87625 15.8046 5.87239 15.7926 5.87159 15.7802C5.8708 15.7677 5.8731 15.7553 5.87829 15.744C5.88348 15.7327 5.8914 15.7228 5.90133 15.7153C6.02762 15.6221 6.15392 15.5249 6.2742 15.4277C6.28502 15.4189 6.29807 15.4134 6.31187 15.4116C6.32567 15.4098 6.3397 15.4119 6.35238 15.4177C10.2885 17.1857 14.5515 17.1857 18.4415 15.4177C18.4543 15.4116 18.4684 15.4092 18.4824 15.4108C18.4964 15.4124 18.5097 15.4179 18.5207 15.4267C18.641 15.5249 18.7663 15.6221 18.8936 15.7153C18.9036 15.7227 18.9117 15.7324 18.917 15.7436C18.9224 15.7548 18.9249 15.7672 18.9243 15.7796C18.9237 15.792 18.92 15.8041 18.9136 15.8147C18.9072 15.8254 18.8983 15.8343 18.8876 15.8406C18.2882 16.1854 17.6647 16.4771 17.0102 16.7197C17.0002 16.7233 16.991 16.729 16.9833 16.7365C16.9757 16.744 16.9697 16.753 16.9658 16.763C16.9619 16.7729 16.9602 16.7836 16.9608 16.7943C16.9614 16.805 16.9642 16.8154 16.9691 16.8249C17.33 17.5135 17.7429 18.169 18.197 18.7914C18.2064 18.8042 18.2196 18.8137 18.2346 18.8187C18.2497 18.8238 18.266 18.824 18.2812 18.8195C20.4406 18.1696 22.4745 17.1594 24.2972 15.8316C24.3061 15.8254 24.3135 15.8174 24.3191 15.808C24.3246 15.7987 24.3281 15.7883 24.3293 15.7775C24.8304 10.6718 23.4893 6.23561 20.772 2.3046C20.7653 2.29182 20.7543 2.28186 20.7409 2.27653ZM8.41519 13.0873C7.23043 13.0873 6.25315 12.0159 6.25315 10.7019C6.25315 9.38684 7.21138 8.31638 8.41519 8.31638C9.62801 8.31638 10.5963 9.39586 10.5772 10.7019C10.5772 12.0169 9.61899 13.0873 8.41519 13.0873ZM16.4088 13.0873C15.223 13.0873 14.2468 12.0159 14.2468 10.7019C14.2468 9.38684 15.204 8.31638 16.4088 8.31638C17.6216 8.31638 18.5899 9.39586 18.5708 10.7019C18.5708 12.0169 17.6226 13.0873 16.4088 13.0873Z" fill="#A76AFF"/>
</svg>
