<svg width="281" height="52" viewBox="0 0 281 52" fill="none" xmlns="http://www.w3.org/2000/svg">
<path d="M22.1562 11.875C22.1562 13.5625 21.7812 15.2188 21.0312 16.8438C20.3125 18.4688 19.3438 19.9375 18.125 21.25C16.9062 22.5312 15.5156 23.5938 13.9531 24.4375C12.3906 25.25 10.7812 25.7031 9.125 25.7969C9.09375 26.3594 9.0625 27.0781 9.03125 27.9531C9.03125 28.7969 8.98438 29.6875 8.89062 30.625C8.79688 31.5625 8.65625 32.5 8.46875 33.4375C8.3125 34.375 8.0625 35.2188 7.71875 35.9688C7.40625 36.7188 6.98438 37.3281 6.45312 37.7969C5.95312 38.2656 5.32812 38.5 4.57812 38.5C3.70312 38.5 3 38.2031 2.46875 37.6094C1.96875 37.0469 1.57812 36.3594 1.29688 35.5469C1.04688 34.7344 0.875 33.8906 0.78125 33.0156C0.6875 32.1094 0.625 31.3438 0.59375 30.7188C0.53125 29.8125 0.484375 28.9219 0.453125 28.0469C0.453125 27.1719 0.453125 26.2812 0.453125 25.375C0.453125 24.9688 0.453125 24.2188 0.453125 23.125C0.453125 22 0.453125 20.7344 0.453125 19.3281C0.484375 17.8906 0.515625 16.4062 0.546875 14.875C0.578125 13.3125 0.625 11.875 0.6875 10.5625C0.75 9.21875 0.8125 8.07812 0.875 7.14062C0.96875 6.20312 1.07812 5.65625 1.20312 5.5C1.23438 5.46875 1.32812 5.40625 1.48438 5.3125C1.64062 5.1875 1.8125 5.07812 2 4.98438C2.1875 4.85938 2.35938 4.75 2.51562 4.65625C2.67188 4.5625 2.78125 4.5 2.84375 4.46875C4.28125 3.65625 5.85938 2.95312 7.57812 2.35938C9.29688 1.76563 11 1.46875 12.6875 1.46875C14.125 1.46875 15.4219 1.76563 16.5781 2.35938C17.7656 2.92188 18.7656 3.6875 19.5781 4.65625C20.4219 5.59375 21.0625 6.70312 21.5 7.98438C21.9375 9.23438 22.1562 10.5312 22.1562 11.875ZM14.0469 12.9531C14.0469 12.3281 13.8906 11.7812 13.5781 11.3125C13.2969 10.8438 12.8125 10.6094 12.125 10.6094C11.5312 10.6094 10.9375 10.7344 10.3438 10.9844C9.75 11.2031 9.20312 11.4375 8.70312 11.6875C8.79688 12.7812 8.875 13.8438 8.9375 14.875C9.03125 15.9062 9.04688 16.9688 8.98438 18.0625C9.48438 17.8125 10.0312 17.5312 10.625 17.2188C11.2188 16.875 11.7656 16.5 12.2656 16.0938C12.7656 15.6875 13.1875 15.2344 13.5312 14.7344C13.875 14.2031 14.0469 13.6094 14.0469 12.9531ZM43.8125 23.5938C43.8125 25.3125 43.6406 27.0156 43.2969 28.7031C42.9531 30.3906 42.375 31.9062 41.5625 33.25C40.75 34.5625 39.6562 35.625 38.2812 36.4375C36.9375 37.25 35.25 37.6562 33.2188 37.6562C31.2188 37.6562 29.5469 37.2656 28.2031 36.4844C26.8594 35.6719 25.7812 34.6094 24.9688 33.2969C24.1875 31.9844 23.625 30.5 23.2812 28.8438C22.9688 27.1875 22.8125 25.5 22.8125 23.7812C22.8125 21.9062 23.0312 20.0469 23.4688 18.2031C23.5625 17.7031 23.7344 17.0156 23.9844 16.1406C24.2656 15.2344 24.6094 14.3594 25.0156 13.5156C25.4531 12.6406 25.9375 11.8906 26.4688 11.2656C27.0312 10.6406 27.6406 10.3281 28.2969 10.3281C28.9219 10.3281 29.4219 10.5 29.7969 10.8438C30.1719 11.1875 30.4688 11.625 30.6875 12.1562C30.9062 12.6562 31.0469 13.2031 31.1094 13.7969C31.1719 14.3594 31.2031 14.875 31.2031 15.3438C31.2031 16.0625 31.1406 16.7656 31.0156 17.4531C30.9219 18.1406 30.8125 18.8281 30.6875 19.5156C30.5625 20.4531 30.4375 21.3906 30.3125 22.3281C30.2188 23.2656 30.1719 24.2031 30.1719 25.1406C30.1719 25.6094 30.1875 26.1406 30.2188 26.7344C30.2812 27.2969 30.4062 27.8438 30.5938 28.375C30.7812 28.9062 31.0469 29.3594 31.3906 29.7344C31.7344 30.0781 32.2188 30.25 32.8438 30.25C33.6562 30.25 34.2969 30.0312 34.7656 29.5938C35.2656 29.1562 35.625 28.6094 35.8438 27.9531C36.0938 27.2969 36.25 26.5938 36.3125 25.8438C36.375 25.0938 36.4062 24.4062 36.4062 23.7812C36.4062 22.4062 36.3125 21.0625 36.125 19.75C35.9375 18.4062 35.7656 17.0469 35.6094 15.6719C35.5781 15.5156 35.5625 15.2969 35.5625 15.0156C35.5625 14.5469 35.6406 14.0781 35.7969 13.6094C35.9531 13.1406 36.1719 12.7188 36.4531 12.3438C36.7344 11.9688 37.0781 11.6719 37.4844 11.4531C37.8906 11.2031 38.3438 11.0781 38.8438 11.0781C39.5312 11.0781 40.1406 11.3281 40.6719 11.8281C41.2031 12.2969 41.6406 12.9219 41.9844 13.7031C42.3594 14.4531 42.6562 15.3125 42.875 16.2812C43.125 17.2188 43.3125 18.1562 43.4375 19.0938C43.5938 20 43.6875 20.8594 43.7188 21.6719C43.7812 22.4844 43.8125 23.125 43.8125 23.5938ZM66.3125 8.96875C66.3125 9.5625 66.25 10.1406 66.125 10.7031C66.0312 11.2344 65.8438 11.7031 65.5625 12.1094C65.2812 12.5156 64.9062 12.8438 64.4375 13.0938C63.9688 13.3125 63.3906 13.4219 62.7031 13.4219C61.9219 13.4219 61.3438 13.2656 60.9688 12.9531C60.5938 12.6406 60.3281 12.2656 60.1719 11.8281C60.0469 11.3594 59.9844 10.8594 59.9844 10.3281C59.9844 9.79688 59.9531 9.3125 59.8906 8.875C59.8594 8.40625 59.75 8.01562 59.5625 7.70312C59.375 7.39062 59.0312 7.23438 58.5312 7.23438C58.0625 7.23438 57.6719 7.59375 57.3594 8.3125C57.0781 9.03125 56.8438 9.85938 56.6562 10.7969C56.4688 11.7344 56.3438 12.6562 56.2812 13.5625C56.2188 14.4375 56.1875 15.0312 56.1875 15.3438C56.5938 15.2812 56.9844 15.2344 57.3594 15.2031C57.7344 15.1406 58.1406 15.1094 58.5781 15.1094C59.0156 15.1094 59.4688 15.1562 59.9375 15.25C60.4062 15.3438 60.8438 15.5 61.25 15.7188C61.6562 15.9062 61.9844 16.1875 62.2344 16.5625C62.4844 16.9062 62.6094 17.3438 62.6094 17.875C62.6094 18.4375 62.3594 18.9375 61.8594 19.375C61.3906 19.8125 60.8125 20.1875 60.125 20.5C59.4688 20.7812 58.7969 21.0156 58.1094 21.2031C57.4219 21.3906 56.875 21.5156 56.4688 21.5781C56.5625 23.7344 56.6094 25.9062 56.6094 28.0938C56.6094 30.1562 56.5625 32.1875 56.4688 34.1875C56.4062 35.1562 56.0625 35.9531 55.4375 36.5781C54.8438 37.2031 54.0625 37.5156 53.0938 37.5156C52.5625 37.5156 52.1094 37.4062 51.7344 37.1875C51.3594 37 51.0469 36.7344 50.7969 36.3906C50.5469 36.0469 50.3438 35.6562 50.1875 35.2188C50.0625 34.7812 49.9844 34.3281 49.9531 33.8594C49.7969 31.9844 49.6719 30.1094 49.5781 28.2344C49.4844 26.3281 49.4531 24.4219 49.4844 22.5156C49.2656 22.5469 49.0469 22.5625 48.8281 22.5625C48.6406 22.5625 48.4375 22.5625 48.2188 22.5625C47.8438 22.5625 47.3906 22.5156 46.8594 22.4219C46.3281 22.3281 45.8125 22.1719 45.3125 21.9531C44.8438 21.7031 44.4375 21.4062 44.0938 21.0625C43.75 20.7188 43.5781 20.2812 43.5781 19.75C43.5781 19.0625 43.8125 18.4844 44.2812 18.0156C44.7188 17.5469 45.25 17.1719 45.875 16.8906C46.5312 16.5781 47.2031 16.3594 47.8906 16.2344C48.6094 16.1094 49.2344 16.0156 49.7656 15.9531V15.2031C49.7656 13.6719 49.9062 12.0312 50.1875 10.2812C50.4688 8.53125 50.9688 6.90625 51.6875 5.40625C52.4062 3.90625 53.3906 2.67187 54.6406 1.70312C55.8906 0.703125 57.4844 0.203125 59.4219 0.203125C60.6406 0.203125 61.6875 0.46875 62.5625 1C63.4375 1.5 64.1562 2.17188 64.7188 3.01562C65.2812 3.82813 65.6875 4.76563 65.9375 5.82812C66.1875 6.85938 66.3125 7.90625 66.3125 8.96875ZM84.2188 8.96875C84.2188 9.5625 84.1562 10.1406 84.0312 10.7031C83.9375 11.2344 83.75 11.7031 83.4688 12.1094C83.1875 12.5156 82.8125 12.8438 82.3438 13.0938C81.875 13.3125 81.2969 13.4219 80.6094 13.4219C79.8281 13.4219 79.25 13.2656 78.875 12.9531C78.5 12.6406 78.2344 12.2656 78.0781 11.8281C77.9531 11.3594 77.8906 10.8594 77.8906 10.3281C77.8906 9.79688 77.8594 9.3125 77.7969 8.875C77.7656 8.40625 77.6562 8.01562 77.4688 7.70312C77.2812 7.39062 76.9375 7.23438 76.4375 7.23438C75.9688 7.23438 75.5781 7.59375 75.2656 8.3125C74.9844 9.03125 74.75 9.85938 74.5625 10.7969C74.375 11.7344 74.25 12.6562 74.1875 13.5625C74.125 14.4375 74.0938 15.0312 74.0938 15.3438C74.5 15.2812 74.8906 15.2344 75.2656 15.2031C75.6406 15.1406 76.0469 15.1094 76.4844 15.1094C76.9219 15.1094 77.375 15.1562 77.8438 15.25C78.3125 15.3438 78.75 15.5 79.1562 15.7188C79.5625 15.9062 79.8906 16.1875 80.1406 16.5625C80.3906 16.9062 80.5156 17.3438 80.5156 17.875C80.5156 18.4375 80.2656 18.9375 79.7656 19.375C79.2969 19.8125 78.7188 20.1875 78.0312 20.5C77.375 20.7812 76.7031 21.0156 76.0156 21.2031C75.3281 21.3906 74.7812 21.5156 74.375 21.5781C74.4688 23.7344 74.5156 25.9062 74.5156 28.0938C74.5156 30.1562 74.4688 32.1875 74.375 34.1875C74.3125 35.1562 73.9688 35.9531 73.3438 36.5781C72.75 37.2031 71.9688 37.5156 71 37.5156C70.4688 37.5156 70.0156 37.4062 69.6406 37.1875C69.2656 37 68.9531 36.7344 68.7031 36.3906C68.4531 36.0469 68.25 35.6562 68.0938 35.2188C67.9688 34.7812 67.8906 34.3281 67.8594 33.8594C67.7031 31.9844 67.5781 30.1094 67.4844 28.2344C67.3906 26.3281 67.3594 24.4219 67.3906 22.5156C67.1719 22.5469 66.9531 22.5625 66.7344 22.5625C66.5469 22.5625 66.3438 22.5625 66.125 22.5625C65.75 22.5625 65.2969 22.5156 64.7656 22.4219C64.2344 22.3281 63.7188 22.1719 63.2188 21.9531C62.75 21.7031 62.3438 21.4062 62 21.0625C61.6562 20.7188 61.4844 20.2812 61.4844 19.75C61.4844 19.0625 61.7188 18.4844 62.1875 18.0156C62.625 17.5469 63.1562 17.1719 63.7812 16.8906C64.4375 16.5781 65.1094 16.3594 65.7969 16.2344C66.5156 16.1094 67.1406 16.0156 67.6719 15.9531V15.2031C67.6719 13.6719 67.8125 12.0312 68.0938 10.2812C68.375 8.53125 68.875 6.90625 69.5938 5.40625C70.3125 3.90625 71.2969 2.67187 72.5469 1.70312C73.7969 0.703125 75.3906 0.203125 77.3281 0.203125C78.5469 0.203125 79.5938 0.46875 80.4688 1C81.3438 1.5 82.0625 2.17188 82.625 3.01562C83.1875 3.82813 83.5938 4.76563 83.8438 5.82812C84.0938 6.85938 84.2188 7.90625 84.2188 8.96875ZM92.6562 50.6406C91.9062 50.6406 91.0469 50.5156 90.0781 50.2656C89.1406 50.0469 88.25 49.7188 87.4062 49.2812C86.5625 48.8438 85.8438 48.3125 85.25 47.6875C84.6875 47.0625 84.4062 46.3438 84.4062 45.5312C84.4062 45.2188 84.4844 44.9062 84.6406 44.5938C84.7969 44.2812 85 44 85.25 43.75C85.5312 43.5312 85.8281 43.3438 86.1406 43.1875C86.4531 43.0625 86.7812 43 87.125 43C87.5 43 87.8594 43.0469 88.2031 43.1406C88.5781 43.2656 88.9531 43.4062 89.3281 43.5625C89.7344 43.7188 90.125 43.8594 90.5 43.9844C90.9062 44.1094 91.3281 44.1719 91.7656 44.1719C92.5469 44.1719 93.2188 43.9062 93.7812 43.375C94.375 42.8438 94.875 42.1406 95.2812 41.2656C95.6875 40.4219 96.0156 39.4688 96.2656 38.4062C96.5156 37.375 96.7031 36.3438 96.8281 35.3125C96.9844 34.2812 97.0938 33.3125 97.1562 32.4062C97.2188 31.5 97.2656 30.7656 97.2969 30.2031C96.2031 31.8594 95.1094 33.1406 94.0156 34.0469C92.9531 34.9219 91.6406 35.3594 90.0781 35.3594C88.8906 35.3594 87.8438 35.1094 86.9375 34.6094C86.0625 34.1094 85.3125 33.4531 84.6875 32.6406C84.0625 31.8281 83.5469 30.9062 83.1406 29.875C82.7344 28.8125 82.4219 27.7188 82.2031 26.5938C82.0156 25.4688 81.8906 24.375 81.8281 23.3125C81.7656 22.2188 81.7656 21.2188 81.8281 20.3125C81.8594 19.625 81.9375 18.7344 82.0625 17.6406C82.2188 16.5156 82.4531 15.4219 82.7656 14.3594C83.0781 13.2969 83.5156 12.4062 84.0781 11.6875C84.6406 10.9375 85.375 10.5938 86.2812 10.6562C86.875 10.6875 87.3594 10.9531 87.7344 11.4531C88.1094 11.9219 88.4062 12.5156 88.625 13.2344C88.875 13.9531 89.0469 14.75 89.1406 15.625C89.2656 16.4688 89.3438 17.3125 89.375 18.1562C89.4062 19 89.4062 19.7812 89.375 20.5C89.375 21.1875 89.375 21.7188 89.375 22.0938C89.375 22.625 89.3906 23.1562 89.4219 23.6875C89.4531 24.2188 89.5625 24.7031 89.75 25.1406C89.9375 25.5469 90.2188 25.875 90.5938 26.125C91 26.375 91.5625 26.5 92.2812 26.5C93.0938 26.5 93.7344 26.2969 94.2031 25.8906C94.7031 25.4844 95.0625 24.9844 95.2812 24.3906C95.5312 23.7656 95.6875 23.1094 95.75 22.4219C95.8125 21.7031 95.8438 21.0312 95.8438 20.4062C95.8438 19.9688 95.8438 19.4375 95.8438 18.8125C95.8438 18.1875 95.8438 17.5312 95.8438 16.8438C95.875 16.1562 95.9375 15.4844 96.0312 14.8281C96.1562 14.1406 96.3281 13.5312 96.5469 13C96.7969 12.4375 97.1094 11.9844 97.4844 11.6406C97.8906 11.2969 98.4062 11.125 99.0312 11.125C99.8125 11.125 100.484 11.4375 101.047 12.0625C101.609 12.6562 102.078 13.4531 102.453 14.4531C102.859 15.4219 103.172 16.5 103.391 17.6875C103.641 18.875 103.828 20.0625 103.953 21.25C104.078 22.4062 104.156 23.4844 104.188 24.4844C104.25 25.4531 104.281 26.2188 104.281 26.7812C104.281 28.0938 104.234 29.5938 104.141 31.2812C104.047 32.9375 103.859 34.6562 103.578 36.4375C103.328 38.1875 102.938 39.9062 102.406 41.5938C101.875 43.3125 101.172 44.8438 100.297 46.1875C99.4531 47.5312 98.4062 48.6094 97.1562 49.4219C95.9062 50.2344 94.4062 50.6406 92.6562 50.6406ZM140.375 11.875C140.375 13.5625 140 15.2188 139.25 16.8438C138.531 18.4688 137.562 19.9375 136.344 21.25C135.125 22.5312 133.734 23.5938 132.172 24.4375C130.609 25.25 129 25.7031 127.344 25.7969C127.312 26.3594 127.281 27.0781 127.25 27.9531C127.25 28.7969 127.203 29.6875 127.109 30.625C127.016 31.5625 126.875 32.5 126.688 33.4375C126.531 34.375 126.281 35.2188 125.938 35.9688C125.625 36.7188 125.203 37.3281 124.672 37.7969C124.172 38.2656 123.547 38.5 122.797 38.5C121.922 38.5 121.219 38.2031 120.688 37.6094C120.188 37.0469 119.797 36.3594 119.516 35.5469C119.266 34.7344 119.094 33.8906 119 33.0156C118.906 32.1094 118.844 31.3438 118.812 30.7188C118.75 29.8125 118.703 28.9219 118.672 28.0469C118.672 27.1719 118.672 26.2812 118.672 25.375C118.672 24.9688 118.672 24.2188 118.672 23.125C118.672 22 118.672 20.7344 118.672 19.3281C118.703 17.8906 118.734 16.4062 118.766 14.875C118.797 13.3125 118.844 11.875 118.906 10.5625C118.969 9.21875 119.031 8.07812 119.094 7.14062C119.188 6.20312 119.297 5.65625 119.422 5.5C119.453 5.46875 119.547 5.40625 119.703 5.3125C119.859 5.1875 120.031 5.07812 120.219 4.98438C120.406 4.85938 120.578 4.75 120.734 4.65625C120.891 4.5625 121 4.5 121.062 4.46875C122.5 3.65625 124.078 2.95312 125.797 2.35938C127.516 1.76563 129.219 1.46875 130.906 1.46875C132.344 1.46875 133.641 1.76563 134.797 2.35938C135.984 2.92188 136.984 3.6875 137.797 4.65625C138.641 5.59375 139.281 6.70312 139.719 7.98438C140.156 9.23438 140.375 10.5312 140.375 11.875ZM132.266 12.9531C132.266 12.3281 132.109 11.7812 131.797 11.3125C131.516 10.8438 131.031 10.6094 130.344 10.6094C129.75 10.6094 129.156 10.7344 128.562 10.9844C127.969 11.2031 127.422 11.4375 126.922 11.6875C127.016 12.7812 127.094 13.8438 127.156 14.875C127.25 15.9062 127.266 16.9688 127.203 18.0625C127.703 17.8125 128.25 17.5312 128.844 17.2188C129.438 16.875 129.984 16.5 130.484 16.0938C130.984 15.6875 131.406 15.2344 131.75 14.7344C132.094 14.2031 132.266 13.6094 132.266 12.9531ZM161.141 28.6562C161.141 29.7188 160.797 30.7656 160.109 31.7969C159.453 32.7969 158.609 33.7031 157.578 34.5156C156.578 35.2969 155.5 35.9375 154.344 36.4375C153.188 36.9062 152.125 37.1406 151.156 37.1406C149.5 37.1406 148.016 36.7344 146.703 35.9219C145.422 35.0781 144.344 34.0156 143.469 32.7344C142.594 31.4531 141.922 30.0469 141.453 28.5156C141.016 26.9531 140.797 25.4375 140.797 23.9688C140.797 22.4062 141.016 20.7344 141.453 18.9531C141.891 17.1719 142.547 15.5312 143.422 14.0312C144.328 12.5312 145.453 11.2812 146.797 10.2812C148.172 9.28125 149.797 8.78125 151.672 8.78125C152.734 8.78125 153.75 8.96875 154.719 9.34375C155.688 9.6875 156.531 10.1875 157.25 10.8438C157.969 11.5 158.547 12.2812 158.984 13.1875C159.422 14.0938 159.641 15.1094 159.641 16.2344C159.641 17.7031 159.328 19.0781 158.703 20.3594C158.078 21.6406 157.25 22.75 156.219 23.6875C155.188 24.625 154 25.3906 152.656 25.9844C151.312 26.5469 149.938 26.8594 148.531 26.9219C148.656 27.8281 149.016 28.4844 149.609 28.8906C150.234 29.2969 150.969 29.5 151.812 29.5C152.438 29.5 153.047 29.3438 153.641 29.0312C154.234 28.7188 154.812 28.375 155.375 28C155.938 27.5938 156.484 27.2344 157.016 26.9219C157.578 26.6094 158.141 26.4531 158.703 26.4531C159.328 26.4531 159.891 26.6562 160.391 27.0625C160.891 27.4688 161.141 28 161.141 28.6562ZM153.547 17.1719C153.547 16.7656 153.438 16.3438 153.219 15.9062C153 15.4688 152.656 15.25 152.188 15.25C151.5 15.25 150.922 15.4375 150.453 15.8125C149.984 16.1562 149.594 16.6094 149.281 17.1719C148.969 17.7031 148.719 18.2812 148.531 18.9062C148.375 19.5312 148.281 20.1094 148.25 20.6406C148.688 20.5469 149.203 20.4219 149.797 20.2656C150.422 20.1094 151 19.9062 151.531 19.6562C152.094 19.375 152.562 19.0312 152.938 18.625C153.344 18.2188 153.547 17.7344 153.547 17.1719ZM176.328 38.3125C175.797 38.3125 175.375 38.0625 175.062 37.5625C174.75 37.0938 174.516 36.5469 174.359 35.9219C174.203 35.2969 174.094 34.6719 174.031 34.0469C174 33.3906 173.984 32.8906 173.984 32.5469C173.984 31.6094 174.031 30.6719 174.125 29.7344C174.25 28.7969 174.375 27.8594 174.5 26.9219C174.656 25.9844 174.781 25.0469 174.875 24.1094C175 23.1719 175.062 22.2344 175.062 21.2969C175.062 20.9219 175.047 20.5156 175.016 20.0781C174.984 19.6406 174.906 19.2344 174.781 18.8594C174.688 18.4531 174.516 18.125 174.266 17.875C174.016 17.625 173.688 17.5 173.281 17.5C173 17.5 172.688 17.7344 172.344 18.2031C172 18.6406 171.672 19.1562 171.359 19.75C171.078 20.3125 170.828 20.8906 170.609 21.4844C170.422 22.0469 170.328 22.4688 170.328 22.75C170.328 23.4375 170.328 24.1406 170.328 24.8594C170.359 25.5469 170.375 26.25 170.375 26.9688V29.6875C170.344 30.25 170.297 30.8281 170.234 31.4219C170.172 32.0156 170.078 32.5938 169.953 33.1562C169.859 33.7188 169.719 34.2656 169.531 34.7969C169.344 35.2969 169.094 35.75 168.781 36.1562C168.5 36.5312 168.156 36.8438 167.75 37.0938C167.344 37.3438 166.859 37.4688 166.297 37.4688C165.672 37.4688 165.156 37.2656 164.75 36.8594C164.344 36.4531 164.016 35.9375 163.766 35.3125C163.516 34.6562 163.328 33.9375 163.203 33.1562C163.109 32.3438 163.031 31.5625 162.969 30.8125C162.938 30.0312 162.922 29.3281 162.922 28.7031C162.953 28.0469 162.969 27.5312 162.969 27.1562V24.9531C162.969 23.7656 162.938 22.5938 162.875 21.4375C162.844 20.2812 162.828 19.125 162.828 17.9688C162.828 17.3438 162.828 16.5469 162.828 15.5781C162.859 14.6094 162.984 13.6719 163.203 12.7656C163.422 11.8281 163.781 11.0312 164.281 10.375C164.781 9.71875 165.516 9.39062 166.484 9.39062C166.922 9.39062 167.312 9.53125 167.656 9.8125C168 10.0938 168.297 10.4375 168.547 10.8438C168.828 11.25 169.047 11.6875 169.203 12.1562C169.391 12.625 169.531 13.0312 169.625 13.375C169.938 12.9375 170.297 12.5156 170.703 12.1094C171.141 11.7031 171.625 11.3438 172.156 11.0312C172.688 10.7188 173.281 10.4688 173.938 10.2812C174.594 10.0938 175.344 10 176.188 10C177.781 10 179.016 10.3906 179.891 11.1719C180.797 11.9219 181.453 12.875 181.859 14.0312C182.297 15.1562 182.562 16.375 182.656 17.6875C182.75 19 182.797 20.1875 182.797 21.25C182.797 21.7812 182.75 22.5781 182.656 23.6406C182.562 24.6719 182.406 25.8281 182.188 27.1094C182 28.3594 181.734 29.6562 181.391 31C181.047 32.3125 180.641 33.5156 180.172 34.6094C179.703 35.7031 179.141 36.5938 178.484 37.2812C177.859 37.9688 177.141 38.3125 176.328 38.3125ZM206.656 21.0156C206.656 22.6094 206.625 24.2031 206.562 25.7969C206.531 27.3906 206.453 28.9844 206.328 30.5781C206.234 31.9531 206.109 33.4219 205.953 34.9844C205.797 36.5469 205.547 38.0938 205.203 39.625C204.859 41.1875 204.406 42.6719 203.844 44.0781C203.281 45.5156 202.531 46.7812 201.594 47.875C200.688 48.9688 199.578 49.8438 198.266 50.5C196.953 51.1562 195.391 51.4844 193.578 51.4844C192.734 51.4844 191.781 51.3438 190.719 51.0625C189.688 50.8125 188.703 50.4375 187.766 49.9375C186.859 49.4375 186.078 48.8125 185.422 48.0625C184.797 47.3438 184.484 46.5 184.484 45.5312C184.484 44.8125 184.734 44.1406 185.234 43.5156C185.766 42.9219 186.438 42.625 187.25 42.625C187.75 42.625 188.219 42.7031 188.656 42.8594C189.125 43.0469 189.578 43.25 190.016 43.4688C190.484 43.6875 190.922 43.875 191.328 44.0312C191.766 44.2188 192.203 44.3125 192.641 44.3125C193.797 44.3125 194.766 44.0156 195.547 43.4219C196.328 42.8594 196.953 42.125 197.422 41.2188C197.891 40.3438 198.234 39.375 198.453 38.3125C198.703 37.2812 198.875 36.2969 198.969 35.3594C198.344 36.0781 197.609 36.5781 196.766 36.8594C195.953 37.1094 195.094 37.2344 194.188 37.2344C192.531 37.2344 191.125 36.9531 189.969 36.3906C188.812 35.7969 187.875 35 187.156 34C186.438 32.9688 185.906 31.7812 185.562 30.4375C185.219 29.0938 185.047 27.6406 185.047 26.0781C185.047 25.1094 185.141 24.0156 185.328 22.7969C185.547 21.5781 185.859 20.3438 186.266 19.0938C186.672 17.8438 187.172 16.625 187.766 15.4375C188.391 14.25 189.109 13.2031 189.922 12.2969C190.734 11.3906 191.641 10.6562 192.641 10.0938C193.672 9.53125 194.797 9.25 196.016 9.25C197.203 9.25 198.25 9.59375 199.156 10.2812C200.094 10.9688 200.641 11.9375 200.797 13.1875C201.141 12.5312 201.594 11.8906 202.156 11.2656C202.719 10.6094 203.406 10.2812 204.219 10.2812C204.656 10.2812 205.016 10.5 205.297 10.9375C205.609 11.375 205.844 11.9531 206 12.6719C206.188 13.3594 206.328 14.125 206.422 14.9688C206.516 15.7812 206.578 16.5938 206.609 17.4062C206.641 18.1875 206.656 18.9062 206.656 19.5625C206.656 20.2188 206.656 20.7031 206.656 21.0156ZM199.531 24.0625C199.531 23.5938 199.453 22.9844 199.297 22.2344C199.172 21.4844 198.969 20.7656 198.688 20.0781C198.438 19.3906 198.109 18.7969 197.703 18.2969C197.297 17.7969 196.812 17.5469 196.25 17.5469C195.531 17.5469 194.891 17.7969 194.328 18.2969C193.797 18.7969 193.344 19.4062 192.969 20.125C192.594 20.8125 192.297 21.5625 192.078 22.375C191.891 23.1562 191.797 23.8281 191.797 24.3906C191.797 24.7969 191.828 25.3438 191.891 26.0312C191.953 26.7188 192.078 27.3906 192.266 28.0469C192.484 28.7031 192.766 29.2656 193.109 29.7344C193.453 30.2031 193.906 30.4375 194.469 30.4375C195.312 30.4375 196.047 30.2344 196.672 29.8281C197.297 29.4219 197.812 28.9062 198.219 28.2812C198.656 27.6562 198.984 26.9688 199.203 26.2188C199.422 25.4688 199.531 24.75 199.531 24.0625ZM230.516 23.5938C230.516 25.3125 230.344 27.0156 230 28.7031C229.656 30.3906 229.078 31.9062 228.266 33.25C227.453 34.5625 226.359 35.625 224.984 36.4375C223.641 37.25 221.953 37.6562 219.922 37.6562C217.922 37.6562 216.25 37.2656 214.906 36.4844C213.562 35.6719 212.484 34.6094 211.672 33.2969C210.891 31.9844 210.328 30.5 209.984 28.8438C209.672 27.1875 209.516 25.5 209.516 23.7812C209.516 21.9062 209.734 20.0469 210.172 18.2031C210.266 17.7031 210.438 17.0156 210.688 16.1406C210.969 15.2344 211.312 14.3594 211.719 13.5156C212.156 12.6406 212.641 11.8906 213.172 11.2656C213.734 10.6406 214.344 10.3281 215 10.3281C215.625 10.3281 216.125 10.5 216.5 10.8438C216.875 11.1875 217.172 11.625 217.391 12.1562C217.609 12.6562 217.75 13.2031 217.812 13.7969C217.875 14.3594 217.906 14.875 217.906 15.3438C217.906 16.0625 217.844 16.7656 217.719 17.4531C217.625 18.1406 217.516 18.8281 217.391 19.5156C217.266 20.4531 217.141 21.3906 217.016 22.3281C216.922 23.2656 216.875 24.2031 216.875 25.1406C216.875 25.6094 216.891 26.1406 216.922 26.7344C216.984 27.2969 217.109 27.8438 217.297 28.375C217.484 28.9062 217.75 29.3594 218.094 29.7344C218.438 30.0781 218.922 30.25 219.547 30.25C220.359 30.25 221 30.0312 221.469 29.5938C221.969 29.1562 222.328 28.6094 222.547 27.9531C222.797 27.2969 222.953 26.5938 223.016 25.8438C223.078 25.0938 223.109 24.4062 223.109 23.7812C223.109 22.4062 223.016 21.0625 222.828 19.75C222.641 18.4062 222.469 17.0469 222.312 15.6719C222.281 15.5156 222.266 15.2969 222.266 15.0156C222.266 14.5469 222.344 14.0781 222.5 13.6094C222.656 13.1406 222.875 12.7188 223.156 12.3438C223.438 11.9688 223.781 11.6719 224.188 11.4531C224.594 11.2031 225.047 11.0781 225.547 11.0781C226.234 11.0781 226.844 11.3281 227.375 11.8281C227.906 12.2969 228.344 12.9219 228.688 13.7031C229.062 14.4531 229.359 15.3125 229.578 16.2812C229.828 17.2188 230.016 18.1562 230.141 19.0938C230.297 20 230.391 20.8594 230.422 21.6719C230.484 22.4844 230.516 23.125 230.516 23.5938ZM241.109 4.28125C241.109 4.71875 240.984 5.10938 240.734 5.45312C240.516 5.79688 240.219 6.10938 239.844 6.39062C239.469 6.64062 239.062 6.84375 238.625 7C238.188 7.125 237.781 7.1875 237.406 7.1875C236.781 7.1875 236.234 7.03125 235.766 6.71875C235.297 6.40625 235.062 5.92188 235.062 5.26562C235.062 4.79688 235.172 4.39063 235.391 4.04688C235.641 3.67188 235.938 3.375 236.281 3.15625C236.625 2.90625 237.016 2.71875 237.453 2.59375C237.891 2.46875 238.312 2.40625 238.719 2.40625C239.312 2.40625 239.859 2.54688 240.359 2.82812C240.859 3.10938 241.109 3.59375 241.109 4.28125ZM241.484 20.2188C241.484 20.6562 241.484 21.125 241.484 21.625C241.484 22.0938 241.469 22.5469 241.438 22.9844C241.406 23.5156 241.391 24.2344 241.391 25.1406C241.391 26.0156 241.359 26.9688 241.297 28C241.234 29.0312 241.125 30.0781 240.969 31.1406C240.844 32.2031 240.625 33.1719 240.312 34.0469C240 34.9219 239.578 35.6406 239.047 36.2031C238.547 36.7344 237.906 37.0156 237.125 37.0469C236.531 37.0781 236.031 36.8438 235.625 36.3438C235.219 35.8438 234.875 35.2031 234.594 34.4219C234.344 33.6094 234.156 32.7188 234.031 31.75C233.906 30.75 233.812 29.7969 233.75 28.8906C233.688 27.9531 233.656 27.0938 233.656 26.3125C233.656 25.5312 233.656 24.9531 233.656 24.5781C233.656 24.0781 233.656 23.375 233.656 22.4688C233.656 21.5312 233.688 20.5312 233.75 19.4688C233.812 18.4062 233.922 17.3281 234.078 16.2344C234.266 15.1406 234.516 14.1406 234.828 13.2344C235.172 12.3281 235.609 11.5938 236.141 11.0312C236.672 10.4688 237.344 10.1875 238.156 10.1875C239 10.1875 239.641 10.6094 240.078 11.4531C240.516 12.2969 240.844 13.2812 241.062 14.4062C241.281 15.5312 241.406 16.6562 241.438 17.7812C241.469 18.875 241.484 19.6875 241.484 20.2188ZM258.125 38.3125C257.594 38.3125 257.172 38.0625 256.859 37.5625C256.547 37.0938 256.312 36.5469 256.156 35.9219C256 35.2969 255.891 34.6719 255.828 34.0469C255.797 33.3906 255.781 32.8906 255.781 32.5469C255.781 31.6094 255.828 30.6719 255.922 29.7344C256.047 28.7969 256.172 27.8594 256.297 26.9219C256.453 25.9844 256.578 25.0469 256.672 24.1094C256.797 23.1719 256.859 22.2344 256.859 21.2969C256.859 20.9219 256.844 20.5156 256.812 20.0781C256.781 19.6406 256.703 19.2344 256.578 18.8594C256.484 18.4531 256.312 18.125 256.062 17.875C255.812 17.625 255.484 17.5 255.078 17.5C254.797 17.5 254.484 17.7344 254.141 18.2031C253.797 18.6406 253.469 19.1562 253.156 19.75C252.875 20.3125 252.625 20.8906 252.406 21.4844C252.219 22.0469 252.125 22.4688 252.125 22.75C252.125 23.4375 252.125 24.1406 252.125 24.8594C252.156 25.5469 252.172 26.25 252.172 26.9688V29.6875C252.141 30.25 252.094 30.8281 252.031 31.4219C251.969 32.0156 251.875 32.5938 251.75 33.1562C251.656 33.7188 251.516 34.2656 251.328 34.7969C251.141 35.2969 250.891 35.75 250.578 36.1562C250.297 36.5312 249.953 36.8438 249.547 37.0938C249.141 37.3438 248.656 37.4688 248.094 37.4688C247.469 37.4688 246.953 37.2656 246.547 36.8594C246.141 36.4531 245.812 35.9375 245.562 35.3125C245.312 34.6562 245.125 33.9375 245 33.1562C244.906 32.3438 244.828 31.5625 244.766 30.8125C244.734 30.0312 244.719 29.3281 244.719 28.7031C244.75 28.0469 244.766 27.5312 244.766 27.1562V24.9531C244.766 23.7656 244.734 22.5938 244.672 21.4375C244.641 20.2812 244.625 19.125 244.625 17.9688C244.625 17.3438 244.625 16.5469 244.625 15.5781C244.656 14.6094 244.781 13.6719 245 12.7656C245.219 11.8281 245.578 11.0312 246.078 10.375C246.578 9.71875 247.312 9.39062 248.281 9.39062C248.719 9.39062 249.109 9.53125 249.453 9.8125C249.797 10.0938 250.094 10.4375 250.344 10.8438C250.625 11.25 250.844 11.6875 251 12.1562C251.188 12.625 251.328 13.0312 251.422 13.375C251.734 12.9375 252.094 12.5156 252.5 12.1094C252.938 11.7031 253.422 11.3438 253.953 11.0312C254.484 10.7188 255.078 10.4688 255.734 10.2812C256.391 10.0938 257.141 10 257.984 10C259.578 10 260.812 10.3906 261.688 11.1719C262.594 11.9219 263.25 12.875 263.656 14.0312C264.094 15.1562 264.359 16.375 264.453 17.6875C264.547 19 264.594 20.1875 264.594 21.25C264.594 21.7812 264.547 22.5781 264.453 23.6406C264.359 24.6719 264.203 25.8281 263.984 27.1094C263.797 28.3594 263.531 29.6562 263.188 31C262.844 32.3125 262.438 33.5156 261.969 34.6094C261.5 35.7031 260.938 36.5938 260.281 37.2812C259.656 37.9688 258.938 38.3125 258.125 38.3125ZM280.953 11.2188C280.953 12.125 280.641 12.7969 280.016 13.2344C279.422 13.6719 278.75 14.0938 278 14.5C277.25 14.875 276.562 15.3281 275.938 15.8594C275.344 16.3906 275.047 17.1875 275.047 18.25C275.047 18.8125 275.172 19.2969 275.422 19.7031C275.703 20.1094 276.031 20.4844 276.406 20.8281C276.812 21.1406 277.25 21.4688 277.719 21.8125C278.188 22.1562 278.609 22.5469 278.984 22.9844C279.391 23.4219 279.719 23.9531 279.969 24.5781C280.25 25.2031 280.391 25.9688 280.391 26.875C280.391 28.1875 280.047 29.4844 279.359 30.7656C278.703 32.0156 277.844 33.1406 276.781 34.1406C275.75 35.1094 274.578 35.8906 273.266 36.4844C271.953 37.0781 270.656 37.375 269.375 37.375C268.844 37.375 268.312 37.3281 267.781 37.2344C267.25 37.1719 266.766 37.0312 266.328 36.8125C265.922 36.5938 265.578 36.2969 265.297 35.9219C265.016 35.5156 264.875 35 264.875 34.375C264.875 33.5 265.047 32.8281 265.391 32.3594C265.734 31.8594 266.172 31.4688 266.703 31.1875C267.234 30.9062 267.797 30.6875 268.391 30.5312C269.016 30.375 269.594 30.1875 270.125 29.9688C270.656 29.7188 271.094 29.4062 271.438 29.0312C271.781 28.6562 271.953 28.125 271.953 27.4375C271.953 26.7812 271.688 26.1094 271.156 25.4219C270.656 24.7031 270.094 23.9531 269.469 23.1719C268.844 22.3594 268.266 21.5 267.734 20.5938C267.234 19.6875 266.984 18.6875 266.984 17.5938C266.984 16.25 267.25 15.0156 267.781 13.8906C268.344 12.7344 269.078 11.7344 269.984 10.8906C270.922 10.0469 271.984 9.39062 273.172 8.92188C274.359 8.42188 275.609 8.17188 276.922 8.17188C277.422 8.17188 277.906 8.21875 278.375 8.3125C278.875 8.40625 279.312 8.57812 279.688 8.82812C280.062 9.04688 280.359 9.35938 280.578 9.76562C280.828 10.1406 280.953 10.625 280.953 11.2188Z" fill="white"/>
</svg>
