<svg width="25" height="20" viewBox="0 0 25 20" fill="none" xmlns="http://www.w3.org/2000/svg">
<path d="M24.8297 2.34684C23.945 2.73864 22.9947 3.00338 21.9956 3.12303C23.0264 2.50652 23.7977 1.53621 24.1654 0.393138C23.1969 0.96812 22.1368 1.37285 21.0314 1.58972C20.2881 0.796443 19.3035 0.270648 18.2305 0.0939653C17.1575 -0.0827178 16.0562 0.0995961 15.0975 0.612602C14.1388 1.12561 13.3764 1.9406 12.9286 2.93105C12.4809 3.92151 12.3728 5.032 12.6212 6.09013C10.6587 5.99164 8.73885 5.48183 6.98624 4.59377C5.23363 3.70571 3.68743 2.45926 2.448 0.935305C2.0242 1.66596 1.78052 2.5131 1.78052 3.41529C1.78005 4.22748 1.98016 5.02723 2.36311 5.74358C2.74606 6.45992 3.3 7.07073 3.97578 7.52179C3.19205 7.49686 2.42562 7.28521 1.74026 6.90444V6.96797C1.74018 8.10709 2.13443 9.21116 2.8561 10.0928C3.57777 10.9745 4.58241 11.5795 5.69957 11.8051C4.97253 12.0018 4.21029 12.0307 3.47041 11.8898C3.7856 12.87 4.39957 13.7271 5.22637 14.3412C6.05316 14.9552 7.05139 15.2955 8.0813 15.3144C6.33297 16.6861 4.17379 17.4302 1.9511 17.4269C1.55737 17.427 1.16398 17.404 0.772949 17.3581C3.0291 18.8079 5.65543 19.5774 8.33769 19.5744C17.4175 19.5744 22.3812 12.0582 22.3812 5.53949C22.3812 5.3277 22.3759 5.1138 22.3664 4.90202C23.3319 4.20416 24.1653 3.34 24.8276 2.35002L24.8297 2.34684Z" fill="#A76AFF"/>
</svg>
